<svg xmlns="http://www.w3.org/2000/svg" viewBox="0 0 216 216">
<path fill="none" stroke="#333" stroke-linejoin="round" stroke-width="12" d="M157.88,50.4 L108.7,60.14 L58.12,50.4 L83.06,36 L136.5,36z
M157.88,50.4 L182.83,93.6 L149.57,132 L108.7,108.4 L108.33,108.61 L107.99,108 L108.7,60.14z
M182.83,93.6 L182.82,122.4 L157.88,165.6 L132.94,180 L149.57,132z
M149.57,132 L132.94,180 L83.08,180 L66.43,132 L108.33,108.61 L108.7,108.4z
M66.43,132 L83.08,180 L58.12,165.6 L33.18,122.4 L33.17,93.6z
M108.7,60.14 L107.99,108 L108.33,108.61 L66.43,132 L33.17,93.6 L58.12,50.4z"/>
</svg>
